<svg width="70" height="32" viewBox="0 0 70 32" fill="none" xmlns="http://www.w3.org/2000/svg">
<g clip-path="url(#clip0_18420_4791)">
<path d="M49.1378 32.3792H0.862108C0.386034 32.3792 0 31.9932 0 31.5171V0.482713C0 0.00663945 0.386034 -0.379395 0.862108 -0.379395H49.1379C49.614 -0.379395 50 0.00663945 50 0.482713V31.5171C49.9999 31.9933 49.6139 32.3792 49.1378 32.3792Z" fill="#F5F5F5"/>
<path d="M49.9999 2.14062H0V0.482712C0 0.00663927 0.386034 -0.379395 0.862108 -0.379395H49.1379C49.614 -0.379395 50 0.00663927 50 0.482712L49.9999 2.14062Z" fill="#FF4B55"/>
<path d="M49.9999 9.7002H0V12.2201H49.9999V9.7002Z" fill="#FF4B55"/>
<path d="M49.9999 4.66016H0V7.18007H49.9999V4.66016Z" fill="#FF4B55"/>
<path d="M49.9999 17.2598H0.862108C0.386034 17.2598 0 16.8737 0 16.3977V14.7397H49.9999V17.2598Z" fill="#FF4B55"/>
<path d="M49.9999 24.8203H0V27.3402H49.9999V24.8203Z" fill="#FF4B55"/>
<path d="M49.1378 32.3793H0.862108C0.386034 32.3793 0 31.9933 0 31.5172V29.8594H49.9999V31.5173C49.9999 31.9934 49.6139 32.3793 49.1378 32.3793Z" fill="#FF4B55"/>
<path d="M49.9999 19.7803H0V22.3002H49.9999V19.7803Z" fill="#FF4B55"/>
<path d="M22.4137 -0.379395H0.862108C0.386034 -0.379395 0 0.00654179 0 0.482615V16.3976C0 16.8737 0.386034 17.2597 0.862108 17.2597H22.4138C22.8899 17.2597 23.2759 16.8737 23.2759 16.3976V0.482615C23.2758 0.00654179 22.8898 -0.379395 22.4137 -0.379395Z" fill="#41479B"/>
<path d="M2.42152 1.59952L2.61234 2.17179L3.21556 2.17638C3.29368 2.17706 3.32601 2.27667 3.26321 2.32306L2.77796 2.68145L2.95999 3.25655C2.98363 3.33096 2.89876 3.39268 2.83519 3.34718L2.34447 2.99649L1.85375 3.34727C1.79017 3.39268 1.7055 3.33106 1.72894 3.25665L1.91097 2.68155L1.42572 2.32315C1.36293 2.27667 1.39525 2.17716 1.47337 2.17648L2.0766 2.17189L2.26742 1.59962C2.29203 1.5254 2.39671 1.5254 2.42152 1.59952Z" fill="#F5F5F5"/>
<path d="M2.42115 4.5931L2.61197 5.16537L3.21519 5.16996C3.29332 5.17064 3.32564 5.27025 3.26285 5.31664L2.7776 5.67503L2.95963 6.25013C2.98326 6.32455 2.8984 6.38626 2.83482 6.34076L2.3441 5.99007L1.85338 6.34085C1.7898 6.38626 1.70514 6.32464 1.72857 6.25023L1.91061 5.67513L1.42535 5.31674C1.36256 5.27025 1.39488 5.17074 1.47301 5.17006L2.07623 5.16546L2.26705 4.5932C2.29166 4.51908 2.39635 4.51908 2.42115 4.5931Z" fill="#F5F5F5"/>
<path d="M2.42115 7.58675L2.61197 8.15902L3.21519 8.16361C3.29332 8.16429 3.32564 8.2639 3.26285 8.31029L2.7776 8.66869L2.95963 9.24378C2.98326 9.3182 2.8984 9.37991 2.83482 9.33441L2.3441 8.98372L1.85338 9.3345C1.7898 9.37991 1.70514 9.31829 1.72857 9.24388L1.91061 8.66878L1.42535 8.31039C1.36256 8.2639 1.39488 8.16439 1.47301 8.16371L2.07623 8.15912L2.26705 7.58685C2.29166 7.51273 2.39635 7.51273 2.42115 7.58675Z" fill="#F5F5F5"/>
<path d="M2.42115 10.5805L2.61197 11.1527L3.21519 11.1573C3.29332 11.158 3.32564 11.2576 3.26285 11.304L2.7776 11.6624L2.95963 12.2375C2.98326 12.3119 2.8984 12.3736 2.83482 12.3281L2.3441 11.9775L1.85338 12.3282C1.7898 12.3736 1.70514 12.312 1.72857 12.2376L1.91061 11.6625L1.42535 11.3041C1.36256 11.2576 1.39488 11.1581 1.47301 11.1574L2.07623 11.1528L2.26705 10.5806C2.29166 10.5064 2.39635 10.5064 2.42115 10.5805Z" fill="#F5F5F5"/>
<path d="M2.42115 13.5737L2.61197 14.146L3.21519 14.1506C3.29332 14.1513 3.32564 14.2509 3.26285 14.2973L2.7776 14.6556L2.95963 15.2307C2.98326 15.3052 2.8984 15.3669 2.83482 15.3214L2.3441 14.9707L1.85338 15.3215C1.7898 15.3669 1.70514 15.3053 1.72857 15.2308L1.91061 14.6557L1.42535 14.2973C1.36256 14.2509 1.39488 14.1514 1.47301 14.1507L2.07623 14.1461L2.26705 13.5738C2.29166 13.4995 2.39635 13.4995 2.42115 13.5737Z" fill="#F5F5F5"/>
<path d="M4.74458 3.06724L4.9354 3.6395L5.53862 3.64409C5.61674 3.64477 5.64907 3.74438 5.58627 3.79077L5.10102 4.14917L5.28305 4.72427C5.30668 4.79868 5.22182 4.8604 5.15825 4.81489L4.66753 4.46411L4.1768 4.81489C4.11323 4.8603 4.02856 4.79868 4.052 4.72427L4.23403 4.14917L3.74878 3.79077C3.68598 3.74429 3.71831 3.64477 3.79643 3.64409L4.39965 3.6395L4.59048 3.06724C4.61499 2.99321 4.71987 2.99321 4.74458 3.06724Z" fill="#F5F5F5"/>
<path d="M4.74458 6.06096L4.9354 6.63323L5.53862 6.63781C5.61674 6.6385 5.64907 6.73811 5.58627 6.78449L5.10102 7.14289L5.28305 7.71799C5.30668 7.7924 5.22182 7.85412 5.15825 7.80861L4.66753 7.45783L4.1768 7.80861C4.11323 7.85402 4.02856 7.7925 4.052 7.71799L4.23403 7.14289L3.74878 6.78449C3.68598 6.73801 3.71831 6.6385 3.79643 6.63781L4.39965 6.63323L4.59048 6.06096C4.61499 5.98684 4.71987 5.98684 4.74458 6.06096Z" fill="#F5F5F5"/>
<path d="M4.74458 9.05461L4.9354 9.62688L5.53862 9.63147C5.61674 9.63215 5.64907 9.73176 5.58627 9.77815L5.10102 10.1365L5.28305 10.7116C5.30668 10.7861 5.22182 10.8478 5.15825 10.8023L4.66753 10.4515L4.1768 10.8023C4.11323 10.8477 4.02856 10.7861 4.052 10.7116L4.23403 10.1365L3.74878 9.77815C3.68598 9.73166 3.71831 9.63215 3.79643 9.63147L4.39965 9.62688L4.59048 9.05461C4.61499 8.98049 4.71987 8.98049 4.74458 9.05461Z" fill="#F5F5F5"/>
<path d="M4.74458 12.0477L4.9354 12.62L5.53862 12.6246C5.61674 12.6252 5.64907 12.7249 5.58627 12.7712L5.10102 13.1296L5.28305 13.7047C5.30668 13.7791 5.22182 13.8409 5.15825 13.7954L4.66753 13.4446L4.1768 13.7954C4.11323 13.8408 4.02856 13.7791 4.052 13.7047L4.23403 13.1296L3.74878 12.7712C3.68598 12.7248 3.71831 12.6252 3.79643 12.6246L4.39965 12.62L4.59048 12.0477C4.61499 11.9737 4.71987 11.9737 4.74458 12.0477Z" fill="#F5F5F5"/>
<path d="M7.06825 1.59954L7.25907 2.1718L7.86229 2.17639C7.94041 2.17707 7.97274 2.27668 7.90994 2.32307L7.42469 2.68147L7.60672 3.25656C7.63035 3.33098 7.54549 3.39269 7.48192 3.34719L6.9912 2.99641L6.50047 3.34719C6.4369 3.3926 6.35223 3.33098 6.37567 3.25656L6.5577 2.68147L6.07245 2.32307C6.00965 2.27658 6.04198 2.17707 6.1201 2.17639L6.72332 2.1718L6.91414 1.59954C6.93875 1.52542 7.04354 1.52542 7.06825 1.59954Z" fill="#F5F5F5"/>
<path d="M7.06825 4.59312L7.25907 5.16538L7.86229 5.16997C7.94041 5.17065 7.97274 5.27026 7.90994 5.31665L7.42469 5.67505L7.60672 6.25014C7.63035 6.32456 7.54549 6.38627 7.48192 6.34077L6.9912 5.98999L6.50047 6.34077C6.4369 6.38618 6.35223 6.32456 6.37567 6.25014L6.5577 5.67505L6.07245 5.31665C6.00965 5.27016 6.04198 5.17065 6.1201 5.16997L6.72332 5.16538L6.91414 4.59312C6.93875 4.51909 7.04354 4.51909 7.06825 4.59312Z" fill="#F5F5F5"/>
<path d="M7.06825 7.58677L7.25907 8.15903L7.86229 8.16362C7.94041 8.16431 7.97274 8.26392 7.90994 8.3103L7.42469 8.6687L7.60672 9.2438C7.63035 9.31821 7.54549 9.37993 7.48192 9.33442L6.9912 8.98364L6.50047 9.33442C6.4369 9.37983 6.35223 9.31821 6.37567 9.2438L6.5577 8.6687L6.07245 8.3103C6.00965 8.26382 6.04198 8.16431 6.1201 8.16362L6.72332 8.15903L6.91414 7.58677C6.93875 7.51274 7.04354 7.51274 7.06825 7.58677Z" fill="#F5F5F5"/>
<path d="M7.06825 10.5805L7.25907 11.1528L7.86229 11.1573C7.94041 11.158 7.97274 11.2576 7.90994 11.304L7.42469 11.6624L7.60672 12.2375C7.63035 12.3119 7.54549 12.3737 7.48192 12.3281L6.9912 11.9774L6.50047 12.3281C6.4369 12.3736 6.35223 12.3119 6.37567 12.2375L6.5577 11.6624L6.07245 11.304C6.00965 11.2575 6.04198 11.158 6.1201 11.1573L6.72332 11.1528L6.91414 10.5805C6.93875 10.5064 7.04354 10.5064 7.06825 10.5805Z" fill="#F5F5F5"/>
<path d="M7.06825 13.5737L7.25907 14.146L7.86229 14.1506C7.94041 14.1513 7.97274 14.2509 7.90994 14.2973L7.42469 14.6557L7.60672 15.2308C7.63035 15.3052 7.54549 15.3669 7.48192 15.3214L6.9912 14.9706L6.50047 15.3214C6.4369 15.3668 6.35223 15.3052 6.37567 15.2308L6.5577 14.6557L6.07245 14.2973C6.00965 14.2508 6.04198 14.1513 6.1201 14.1506L6.72332 14.146L6.91414 13.5737C6.93875 13.4995 7.04354 13.4995 7.06825 13.5737Z" fill="#F5F5F5"/>
<path d="M9.39191 3.06724L9.58274 3.6395L10.186 3.64409C10.2641 3.64477 10.2964 3.74438 10.2336 3.79077L9.74836 4.14917L9.93039 4.72427C9.95402 4.79868 9.86916 4.8604 9.80559 4.81489L9.31486 4.46411L8.82414 4.81489C8.76057 4.8603 8.6759 4.79868 8.69934 4.72427L8.88137 4.14917L8.39612 3.79077C8.33332 3.74429 8.36565 3.64477 8.44377 3.64409L9.04699 3.6395L9.23781 3.06724C9.26233 2.99321 9.36721 2.99321 9.39191 3.06724Z" fill="#F5F5F5"/>
<path d="M9.39191 6.06096L9.58274 6.63323L10.186 6.63781C10.2641 6.6385 10.2964 6.73811 10.2336 6.78449L9.74836 7.14289L9.93039 7.71799C9.95402 7.7924 9.86916 7.85412 9.80559 7.80861L9.31486 7.45783L8.82414 7.80861C8.76057 7.85402 8.6759 7.7925 8.69934 7.71799L8.88137 7.14289L8.39612 6.78449C8.33332 6.73801 8.36565 6.6385 8.44377 6.63781L9.04699 6.63323L9.23781 6.06096C9.26233 5.98684 9.36721 5.98684 9.39191 6.06096Z" fill="#F5F5F5"/>
<path d="M9.39191 9.05461L9.58274 9.62688L10.186 9.63147C10.2641 9.63215 10.2964 9.73176 10.2336 9.77815L9.74836 10.1365L9.93039 10.7116C9.95402 10.7861 9.86916 10.8478 9.80559 10.8023L9.31486 10.4515L8.82414 10.8023C8.76057 10.8477 8.6759 10.7861 8.69934 10.7116L8.88137 10.1365L8.39612 9.77815C8.33332 9.73166 8.36565 9.63215 8.44377 9.63147L9.04699 9.62688L9.23781 9.05461C9.26233 8.98049 9.36721 8.98049 9.39191 9.05461Z" fill="#F5F5F5"/>
<path d="M9.39191 12.0477L9.58274 12.62L10.186 12.6246C10.2641 12.6252 10.2964 12.7249 10.2336 12.7712L9.74836 13.1296L9.93039 13.7047C9.95402 13.7791 9.86916 13.8409 9.80559 13.7954L9.31486 13.4446L8.82414 13.7954C8.76057 13.8408 8.6759 13.7791 8.69934 13.7047L8.88137 13.1296L8.39612 12.7712C8.33332 12.7248 8.36565 12.6252 8.44377 12.6246L9.04699 12.62L9.23781 12.0477C9.26233 11.9737 9.36721 11.9737 9.39191 12.0477Z" fill="#F5F5F5"/>
<path d="M11.7154 1.59954L11.9062 2.1718L12.5094 2.17639C12.5875 2.17707 12.6199 2.27668 12.5571 2.32307L12.0718 2.68147L12.2539 3.25656C12.2775 3.33098 12.1926 3.39269 12.129 3.34719L11.6382 2.99641L11.1475 3.34719C11.0839 3.3926 10.9993 3.33098 11.0227 3.25656L11.2047 2.68147L10.7195 2.32307C10.6567 2.27658 10.689 2.17707 10.7671 2.17639L11.3704 2.1718L11.5612 1.59954C11.5859 1.52542 11.6907 1.52542 11.7154 1.59954Z" fill="#F5F5F5"/>
<path d="M11.7154 4.59312L11.9062 5.16538L12.5094 5.16997C12.5875 5.17065 12.6199 5.27026 12.5571 5.31665L12.0718 5.67505L12.2539 6.25014C12.2775 6.32456 12.1926 6.38627 12.129 6.34077L11.6382 5.98999L11.1475 6.34077C11.0839 6.38618 10.9993 6.32456 11.0227 6.25014L11.2047 5.67505L10.7195 5.31665C10.6567 5.27016 10.689 5.17065 10.7671 5.16997L11.3704 5.16538L11.5612 4.59312C11.5859 4.51909 11.6907 4.51909 11.7154 4.59312Z" fill="#F5F5F5"/>
<path d="M11.7154 7.58677L11.9062 8.15903L12.5094 8.16362C12.5875 8.16431 12.6199 8.26392 12.5571 8.3103L12.0718 8.6687L12.2539 9.2438C12.2775 9.31821 12.1926 9.37993 12.129 9.33442L11.6382 8.98364L11.1475 9.33442C11.0839 9.37983 10.9993 9.31821 11.0227 9.2438L11.2047 8.6687L10.7195 8.3103C10.6567 8.26382 10.689 8.16431 10.7671 8.16362L11.3704 8.15903L11.5612 7.58677C11.5859 7.51274 11.6907 7.51274 11.7154 7.58677Z" fill="#F5F5F5"/>
<path d="M11.7154 10.5805L11.9062 11.1528L12.5094 11.1573C12.5875 11.158 12.6199 11.2576 12.5571 11.304L12.0718 11.6624L12.2539 12.2375C12.2775 12.3119 12.1926 12.3737 12.129 12.3281L11.6382 11.9774L11.1475 12.3281C11.0839 12.3736 10.9993 12.3119 11.0227 12.2375L11.2047 11.6624L10.7195 11.304C10.6567 11.2575 10.689 11.158 10.7671 11.1573L11.3704 11.1528L11.5612 10.5805C11.5859 10.5064 11.6907 10.5064 11.7154 10.5805Z" fill="#F5F5F5"/>
<path d="M11.7154 13.5737L11.9062 14.146L12.5094 14.1506C12.5875 14.1513 12.6199 14.2509 12.5571 14.2973L12.0718 14.6557L12.2539 15.2308C12.2775 15.3052 12.1926 15.3669 12.129 15.3214L11.6382 14.9706L11.1475 15.3214C11.0839 15.3668 10.9993 15.3052 11.0227 15.2308L11.2047 14.6557L10.7195 14.2973C10.6567 14.2508 10.689 14.1513 10.7671 14.1506L11.3704 14.146L11.5612 13.5737C11.5859 13.4995 11.6907 13.4995 11.7154 13.5737Z" fill="#F5F5F5"/>
<path d="M14.039 3.06724L14.2298 3.6395L14.8331 3.64409C14.9112 3.64477 14.9435 3.74438 14.8807 3.79077L14.3955 4.14917L14.5775 4.72427C14.6011 4.79868 14.5163 4.8604 14.4527 4.81489L13.962 4.46411L13.4712 4.81489C13.4077 4.8603 13.323 4.79868 13.3464 4.72427L13.5285 4.14917L13.0432 3.79077C12.9804 3.74429 13.0127 3.64477 13.0909 3.64409L13.6941 3.6395L13.8849 3.06724C13.9096 2.99321 14.0143 2.99321 14.039 3.06724Z" fill="#F5F5F5"/>
<path d="M14.039 6.06096L14.2298 6.63323L14.8331 6.63781C14.9112 6.6385 14.9435 6.73811 14.8807 6.78449L14.3955 7.14289L14.5775 7.71799C14.6011 7.7924 14.5163 7.85412 14.4527 7.80861L13.962 7.45783L13.4712 7.80861C13.4077 7.85402 13.323 7.7925 13.3464 7.71799L13.5285 7.14289L13.0432 6.78449C12.9804 6.73801 13.0127 6.6385 13.0909 6.63781L13.6941 6.63323L13.8849 6.06096C13.9096 5.98684 14.0143 5.98684 14.039 6.06096Z" fill="#F5F5F5"/>
<path d="M14.039 9.05461L14.2298 9.62688L14.8331 9.63147C14.9112 9.63215 14.9435 9.73176 14.8807 9.77815L14.3955 10.1365L14.5775 10.7116C14.6011 10.7861 14.5163 10.8478 14.4527 10.8023L13.962 10.4515L13.4712 10.8023C13.4077 10.8477 13.323 10.7861 13.3464 10.7116L13.5285 10.1365L13.0432 9.77815C12.9804 9.73166 13.0127 9.63215 13.0909 9.63147L13.6941 9.62688L13.8849 9.05461C13.9096 8.98049 14.0143 8.98049 14.039 9.05461Z" fill="#F5F5F5"/>
<path d="M14.039 12.0477L14.2298 12.62L14.8331 12.6246C14.9112 12.6252 14.9435 12.7249 14.8807 12.7712L14.3955 13.1296L14.5775 13.7047C14.6011 13.7791 14.5163 13.8409 14.4527 13.7954L13.962 13.4446L13.4712 13.7954C13.4077 13.8408 13.323 13.7791 13.3464 13.7047L13.5285 13.1296L13.0432 12.7712C12.9804 12.7248 13.0127 12.6252 13.0909 12.6246L13.6941 12.62L13.8849 12.0477C13.9096 11.9737 14.0143 11.9737 14.039 12.0477Z" fill="#F5F5F5"/>
<path d="M16.3626 1.59954L16.5534 2.1718L17.1567 2.17639C17.2348 2.17707 17.2671 2.27668 17.2043 2.32307L16.7191 2.68147L16.9011 3.25656C16.9247 3.33098 16.8399 3.39269 16.7763 3.34719L16.2856 2.99641L15.7948 3.34719C15.7313 3.3926 15.6466 3.33098 15.67 3.25656L15.8521 2.68147L15.3668 2.32307C15.304 2.27658 15.3364 2.17707 15.4145 2.17639L16.0177 2.1718L16.2085 1.59954C16.233 1.52542 16.3379 1.52542 16.3626 1.59954Z" fill="#F5F5F5"/>
<path d="M16.3626 4.59312L16.5534 5.16538L17.1567 5.16997C17.2348 5.17065 17.2671 5.27026 17.2043 5.31665L16.7191 5.67505L16.9011 6.25014C16.9247 6.32456 16.8399 6.38627 16.7763 6.34077L16.2856 5.98999L15.7948 6.34077C15.7313 6.38618 15.6466 6.32456 15.67 6.25014L15.8521 5.67505L15.3668 5.31665C15.304 5.27016 15.3364 5.17065 15.4145 5.16997L16.0177 5.16538L16.2085 4.59312C16.233 4.51909 16.3379 4.51909 16.3626 4.59312Z" fill="#F5F5F5"/>
<path d="M16.3626 7.58677L16.5534 8.15903L17.1567 8.16362C17.2348 8.16431 17.2671 8.26392 17.2043 8.3103L16.7191 8.6687L16.9011 9.2438C16.9247 9.31821 16.8399 9.37993 16.7763 9.33442L16.2856 8.98364L15.7948 9.33442C15.7313 9.37983 15.6466 9.31821 15.67 9.2438L15.8521 8.6687L15.3668 8.3103C15.304 8.26382 15.3364 8.16431 15.4145 8.16362L16.0177 8.15903L16.2085 7.58677C16.233 7.51274 16.3379 7.51274 16.3626 7.58677Z" fill="#F5F5F5"/>
<path d="M16.3626 10.5805L16.5534 11.1528L17.1567 11.1573C17.2348 11.158 17.2671 11.2576 17.2043 11.304L16.7191 11.6624L16.9011 12.2375C16.9247 12.3119 16.8399 12.3737 16.7763 12.3281L16.2856 11.9774L15.7948 12.3281C15.7313 12.3736 15.6466 12.3119 15.67 12.2375L15.8521 11.6624L15.3668 11.304C15.304 11.2575 15.3364 11.158 15.4145 11.1573L16.0177 11.1528L16.2085 10.5805C16.233 10.5064 16.3379 10.5064 16.3626 10.5805Z" fill="#F5F5F5"/>
<path d="M16.3626 13.5737L16.5534 14.146L17.1567 14.1506C17.2348 14.1513 17.2671 14.2509 17.2043 14.2973L16.7191 14.6557L16.9011 15.2308C16.9247 15.3052 16.8399 15.3669 16.7763 15.3214L16.2856 14.9706L15.7948 15.3214C15.7313 15.3668 15.6466 15.3052 15.67 15.2308L15.8521 14.6557L15.3668 14.2973C15.304 14.2508 15.3364 14.1513 15.4145 14.1506L16.0177 14.146L16.2085 13.5737C16.233 13.4995 16.3379 13.4995 16.3626 13.5737Z" fill="#F5F5F5"/>
<path d="M18.686 3.06724L18.8769 3.6395L19.4801 3.64409C19.5582 3.64477 19.5905 3.74438 19.5277 3.79077L19.0425 4.14917L19.2245 4.72427C19.2482 4.79868 19.1633 4.8604 19.0997 4.81489L18.609 4.46411L18.1183 4.81489C18.0547 4.8603 17.97 4.79868 17.9935 4.72427L18.1755 4.14917L17.6902 3.79077C17.6275 3.74429 17.6598 3.64477 17.7379 3.64409L18.3411 3.6395L18.5319 3.06724C18.5566 2.99321 18.6614 2.99321 18.686 3.06724Z" fill="#F5F5F5"/>
<path d="M18.686 6.06096L18.8769 6.63323L19.4801 6.63781C19.5582 6.6385 19.5905 6.73811 19.5277 6.78449L19.0425 7.14289L19.2245 7.71799C19.2482 7.7924 19.1633 7.85412 19.0997 7.80861L18.609 7.45783L18.1183 7.80861C18.0547 7.85402 17.97 7.7925 17.9935 7.71799L18.1755 7.14289L17.6902 6.78449C17.6275 6.73801 17.6598 6.6385 17.7379 6.63781L18.3411 6.63323L18.5319 6.06096C18.5566 5.98684 18.6614 5.98684 18.686 6.06096Z" fill="#F5F5F5"/>
<path d="M18.686 9.05461L18.8769 9.62688L19.4801 9.63147C19.5582 9.63215 19.5905 9.73176 19.5277 9.77815L19.0425 10.1365L19.2245 10.7116C19.2482 10.7861 19.1633 10.8478 19.0997 10.8023L18.609 10.4515L18.1183 10.8023C18.0547 10.8477 17.97 10.7861 17.9935 10.7116L18.1755 10.1365L17.6902 9.77815C17.6275 9.73166 17.6598 9.63215 17.7379 9.63147L18.3411 9.62688L18.5319 9.05461C18.5566 8.98049 18.6614 8.98049 18.686 9.05461Z" fill="#F5F5F5"/>
<path d="M18.686 12.0477L18.8769 12.62L19.4801 12.6246C19.5582 12.6252 19.5905 12.7249 19.5277 12.7712L19.0425 13.1296L19.2245 13.7047C19.2482 13.7791 19.1633 13.8409 19.0997 13.7954L18.609 13.4446L18.1183 13.7954C18.0547 13.8408 17.97 13.7791 17.9935 13.7047L18.1755 13.1296L17.6902 12.7712C17.6275 12.7248 17.6598 12.6252 17.7379 12.6246L18.3411 12.62L18.5319 12.0477C18.5566 11.9737 18.6614 11.9737 18.686 12.0477Z" fill="#F5F5F5"/>
<path d="M21.0097 1.59954L21.2005 2.1718L21.8038 2.17639C21.8819 2.17707 21.9142 2.27668 21.8514 2.32307L21.3662 2.68147L21.5482 3.25656C21.5718 3.33098 21.487 3.39269 21.4234 3.34719L20.9327 2.99641L20.4419 3.34719C20.3784 3.3926 20.2937 3.33098 20.3171 3.25656L20.4992 2.68147L20.0139 2.32307C19.9511 2.27658 19.9834 2.17707 20.0616 2.17639L20.6648 2.1718L20.8556 1.59954C20.8802 1.52542 20.9849 1.52542 21.0097 1.59954Z" fill="#F5F5F5"/>
<path d="M21.0097 4.59312L21.2005 5.16538L21.8038 5.16997C21.8819 5.17065 21.9142 5.27026 21.8514 5.31665L21.3662 5.67505L21.5482 6.25014C21.5718 6.32456 21.487 6.38627 21.4234 6.34077L20.9327 5.98999L20.4419 6.34077C20.3784 6.38618 20.2937 6.32456 20.3171 6.25014L20.4992 5.67505L20.0139 5.31665C19.9511 5.27016 19.9834 5.17065 20.0616 5.16997L20.6648 5.16538L20.8556 4.59312C20.8802 4.51909 20.9849 4.51909 21.0097 4.59312Z" fill="#F5F5F5"/>
<path d="M21.0097 7.58677L21.2005 8.15903L21.8038 8.16362C21.8819 8.16431 21.9142 8.26392 21.8514 8.3103L21.3662 8.6687L21.5482 9.2438C21.5718 9.31821 21.487 9.37993 21.4234 9.33442L20.9327 8.98364L20.4419 9.33442C20.3784 9.37983 20.2937 9.31821 20.3171 9.2438L20.4992 8.6687L20.0139 8.3103C19.9511 8.26382 19.9834 8.16431 20.0616 8.16362L20.6648 8.15903L20.8556 7.58677C20.8802 7.51274 20.9849 7.51274 21.0097 7.58677Z" fill="#F5F5F5"/>
<path d="M21.0097 10.5805L21.2005 11.1528L21.8038 11.1573C21.8819 11.158 21.9142 11.2576 21.8514 11.304L21.3662 11.6624L21.5482 12.2375C21.5718 12.3119 21.487 12.3737 21.4234 12.3281L20.9327 11.9774L20.4419 12.3281C20.3784 12.3736 20.2937 12.3119 20.3171 12.2375L20.4992 11.6624L20.0139 11.304C19.9511 11.2575 19.9834 11.158 20.0616 11.1573L20.6648 11.1528L20.8556 10.5805C20.8802 10.5064 20.9849 10.5064 21.0097 10.5805Z" fill="#F5F5F5"/>
<path d="M21.0097 13.5737L21.2005 14.146L21.8038 14.1506C21.8819 14.1513 21.9142 14.2509 21.8514 14.2973L21.3662 14.6557L21.5482 15.2308C21.5718 15.3052 21.487 15.3669 21.4234 15.3214L20.9327 14.9706L20.4419 15.3214C20.3784 15.3668 20.2937 15.3052 20.3171 15.2308L20.4992 14.6557L20.0139 14.2973C19.9511 14.2508 19.9834 14.1513 20.0616 14.1506L20.6648 14.146L20.8556 13.5737C20.8802 13.4995 20.9849 13.4995 21.0097 13.5737Z" fill="#F5F5F5"/>
</g>
<path d="M54 8C54 3.58172 57.5817 0 62 0C66.4183 0 70 3.58172 70 8C70 12.4183 66.4183 16 62 16C57.5817 16 54 12.4183 54 8Z" fill="white" fill-opacity="0.1"/>
<rect x="56.6667" y="2.6665" width="10.6667" height="10.6667" rx="5.33333" fill="white" fill-opacity="0.5"/>
<circle cx="61.9999" cy="8.00016" r="2.66667" fill="#FDFDFD"/>
<defs>
<clipPath id="clip0_18420_4791">
<rect width="50" height="32" fill="white"/>
</clipPath>
</defs>
</svg>
