<svg width="70" height="32" viewBox="0 0 70 32" fill="none" xmlns="http://www.w3.org/2000/svg">
<g clip-path="url(#clip0_18420_423)">
<path d="M50 16H6.10352e-05V0.482713C6.10352e-05 0.00663939 0.386095 -0.379395 0.862169 -0.379395H49.138C49.614 -0.379395 50.0001 0.00663939 50.0001 0.482713L50 16Z" fill="#FF4B55"/>
<path d="M6.10352e-05 16H50V31.5173C50 31.9933 49.6139 32.3794 49.1379 32.3794H0.862169C0.386095 32.3794 6.10352e-05 31.9933 6.10352e-05 31.5173V16Z" fill="#F5F5F5"/>
</g>
<path d="M54 8C54 3.58172 57.5817 0 62 0C66.4183 0 70 3.58172 70 8C70 12.4183 66.4183 16 62 16C57.5817 16 54 12.4183 54 8Z" fill="white" fill-opacity="0.1"/>
<rect x="56.6667" y="2.6665" width="10.6667" height="10.6667" rx="5.33333" fill="white" fill-opacity="0.5"/>
<circle cx="61.9999" cy="8.00016" r="2.66667" fill="#FDFDFD"/>
<defs>
<clipPath id="clip0_18420_423">
<rect width="50" height="32" fill="white"/>
</clipPath>
</defs>
</svg>
