<svg width="70" height="32" viewBox="0 0 70 32" fill="none" xmlns="http://www.w3.org/2000/svg">
<g clip-path="url(#clip0_18420_4905)">
<path d="M50.0009 10.5402H0.000976562V0.482713C0.000976562 0.00663942 0.387011 -0.379395 0.863084 -0.379395H49.1389C49.6149 -0.379395 50.001 0.00663942 50.001 0.482713L50.0009 10.5402Z" fill="#464655"/>
<path d="M49.1388 32.3795H0.863084C0.387011 32.3795 0.000976562 31.9934 0.000976562 31.5174V21.46H50.0009V31.5174C50.0009 31.9935 49.6148 32.3795 49.1388 32.3795Z" fill="#FFE15A"/>
<path d="M50.0009 10.54H0.000976562V21.459H50.0009V10.54Z" fill="#FF4B55"/>
</g>
<path d="M54 8C54 3.58172 57.5817 0 62 0C66.4183 0 70 3.58172 70 8C70 12.4183 66.4183 16 62 16C57.5817 16 54 12.4183 54 8Z" fill="white" fill-opacity="0.1"/>
<rect x="56.6667" y="2.6665" width="10.6667" height="10.6667" rx="5.33333" fill="white" fill-opacity="0.5"/>
<circle cx="61.9999" cy="8.00016" r="2.66667" fill="#FDFDFD"/>
<defs>
<clipPath id="clip0_18420_4905">
<rect width="50" height="32" fill="white"/>
</clipPath>
</defs>
</svg>
