<svg width="30" height="30" viewBox="0 0 30 30" fill="none" xmlns="http://www.w3.org/2000/svg">
<path d="M14.8531 29.3086C6.90546 29.3086 0.436646 22.8398 0.436646 14.8921C0.436646 6.94441 6.90546 0.475586 14.8531 0.475586C22.8008 0.475586 29.2696 6.94441 29.2696 14.8921C29.2696 22.8398 22.8008 29.3086 14.8531 29.3086ZM14.8531 2.80083C8.18435 2.80083 2.76189 8.22329 2.76189 14.8921C2.76189 21.5609 8.18435 26.9833 14.8531 26.9833C21.5219 26.9833 26.9444 21.5609 26.9444 14.8921C26.9444 8.22329 21.5219 2.80083 14.8531 2.80083Z" fill="#FDFDFD"/>
<path d="M10.6684 13.4737C7.94325 13.4737 4.99485 13.0692 1.85112 12.2507C1.22796 12.0879 0.855921 11.4554 1.01869 10.8323C1.18145 10.2091 1.81392 9.83707 2.43708 9.99984C11.9613 12.4739 19.416 10.9067 23.9921 5.47492C24.406 4.98662 25.1407 4.92151 25.629 5.33541C26.122 5.7493 26.1824 6.48407 25.7686 6.97238C22.1365 11.2834 17.0024 13.4737 10.6684 13.4737Z" fill="#FDFDFD"/>
<path d="M4.85547 24.7554C4.58574 24.7554 4.32066 24.6623 4.10209 24.4763C3.61379 24.0578 3.55798 23.323 3.97187 22.8347C10.7709 14.887 19.5696 12.9989 28.1125 17.6634C28.6752 17.9703 28.8845 18.6772 28.5776 19.2399C28.2706 19.8026 27.5638 20.0119 27.0011 19.7049C16.7421 14.1104 9.27807 20.2118 5.73906 24.3508C5.51118 24.6158 5.18565 24.7554 4.85547 24.7554Z" fill="#FDFDFD"/>
<path d="M18.6617 28.7508C18.6199 28.7508 18.578 28.7508 18.5362 28.7461C17.8991 28.6764 17.4387 28.1044 17.5084 27.4626C18.4153 19.1476 16.276 10.7627 11.1559 2.53138C10.8164 1.98728 10.9838 1.2711 11.5279 0.931616C12.072 0.59213 12.7882 0.759548 13.1277 1.30365C18.5315 9.9861 20.7824 18.8732 19.8197 27.7184C19.7499 28.3137 19.2477 28.7508 18.6617 28.7508Z" fill="#FDFDFD"/>
</svg>
