<svg width="25" height="25" viewBox="0 0 25 25" fill="none" xmlns="http://www.w3.org/2000/svg">
<path d="M8.00569 12.0614C8.00569 9.85043 9.79706 8.05757 12.0074 8.05757C14.2178 8.05757 16.0102 9.85043 16.0102 12.0614C16.0102 14.2725 14.2178 16.0653 12.0074 16.0653C9.79706 16.0653 8.00569 14.2725 8.00569 12.0614ZM5.84189 12.0614C5.84189 15.4677 8.6022 18.2288 12.0074 18.2288C15.4127 18.2288 18.173 15.4677 18.173 12.0614C18.173 8.65522 15.4127 5.89411 12.0074 5.89411C8.6022 5.89411 5.84189 8.65522 5.84189 12.0614ZM16.9762 5.64958C16.9761 5.93464 17.0605 6.21333 17.2187 6.45041C17.377 6.68749 17.6019 6.87231 17.8652 6.9815C18.1284 7.09069 18.4181 7.11935 18.6976 7.06385C18.9771 7.00835 19.2339 6.87119 19.4355 6.6697C19.6371 6.46821 19.7744 6.21146 19.8301 5.9319C19.8859 5.65234 19.8574 5.36254 19.7485 5.09913C19.6395 4.83573 19.4549 4.61056 19.2181 4.45209C18.9812 4.29363 18.7026 4.20899 18.4177 4.20887H18.4171C18.0351 4.20905 17.6688 4.36088 17.3986 4.63101C17.1285 4.90114 16.9765 5.26748 16.9762 5.64958ZM7.15654 21.8378C5.98588 21.7845 5.3496 21.5895 4.92675 21.4247C4.36616 21.2064 3.96617 20.9464 3.54563 20.5263C3.12509 20.1062 2.86478 19.7065 2.6475 19.1457C2.48266 18.7229 2.28766 18.0863 2.23445 16.9153C2.17624 15.6493 2.16461 15.269 2.16461 12.0615C2.16461 8.85412 2.1772 8.47487 2.23445 7.20779C2.28776 6.0368 2.4842 5.40139 2.6475 4.97736C2.86574 4.41661 3.12567 4.01651 3.54563 3.59585C3.9656 3.17519 4.3652 2.9148 4.92675 2.69745C5.3494 2.53257 5.98588 2.33752 7.15654 2.28428C8.42219 2.22606 8.80239 2.21443 12.0074 2.21443C15.2125 2.21443 15.5931 2.22702 16.8598 2.28428C18.0304 2.33761 18.6657 2.53411 19.0896 2.69745C19.6502 2.9148 20.0502 3.17576 20.4707 3.59585C20.8912 4.01593 21.1506 4.41661 21.3688 4.97736C21.5337 5.40014 21.7287 6.0368 21.7819 7.20779C21.8401 8.47487 21.8517 8.85412 21.8517 12.0615C21.8517 15.269 21.8401 15.6482 21.7819 16.9153C21.7286 18.0863 21.5326 18.7228 21.3688 19.1457C21.1506 19.7065 20.8907 20.1066 20.4707 20.5263C20.0507 20.946 19.6502 21.2064 19.0896 21.4247C18.6669 21.5896 18.0304 21.7846 16.8598 21.8378C15.5941 21.8961 15.2139 21.9077 12.0074 21.9077C8.80095 21.9077 8.42181 21.8961 7.15654 21.8378ZM7.05712 0.123518C5.77888 0.181746 4.90543 0.384486 4.14263 0.681389C3.35265 0.987998 2.6839 1.39934 2.01563 2.06675C1.34736 2.73416 0.93719 3.40416 0.63067 4.19437C0.333852 4.95786 0.131171 5.83108 0.0729598 7.10969C0.0137883 8.39032 0.000244141 8.79974 0.000244141 12.0614C0.000244141 15.3232 0.0137883 15.7326 0.0729598 17.0132C0.131171 18.2919 0.333852 19.165 0.63067 19.9285C0.93719 20.7183 1.34745 21.389 2.01563 22.0561C2.68381 22.7233 3.35265 23.134 4.14263 23.4415C4.90687 23.7384 5.77888 23.9411 7.05712 23.9994C8.33805 24.0576 8.74667 24.0721 12.0074 24.0721C15.2682 24.0721 15.6775 24.0586 16.9578 23.9994C18.2361 23.9411 19.109 23.7384 19.8723 23.4415C20.6618 23.134 21.331 22.7236 21.9993 22.0561C22.6675 21.3887 23.0768 20.7183 23.3842 19.9285C23.681 19.165 23.8847 18.2918 23.9419 17.0132C24.0001 15.7316 24.0137 15.3232 24.0137 12.0614C24.0137 8.79974 24.0001 8.39032 23.9419 7.10969C23.8837 5.83099 23.681 4.95738 23.3842 4.19437C23.0768 3.40464 22.6665 2.73521 21.9993 2.06675C21.332 1.39828 20.6618 0.987998 19.8732 0.681389C19.109 0.384486 18.236 0.180785 16.9587 0.123518C15.6785 0.0652901 15.2692 0.0507812 12.0084 0.0507812C8.74763 0.0507812 8.33805 0.0643293 7.05712 0.123518Z" fill="#FDFDFD"/>
<path d="M8.00569 12.0614C8.00569 9.85043 9.79706 8.05757 12.0074 8.05757C14.2178 8.05757 16.0102 9.85043 16.0102 12.0614C16.0102 14.2725 14.2178 16.0653 12.0074 16.0653C9.79706 16.0653 8.00569 14.2725 8.00569 12.0614ZM5.84189 12.0614C5.84189 15.4677 8.6022 18.2288 12.0074 18.2288C15.4127 18.2288 18.173 15.4677 18.173 12.0614C18.173 8.65522 15.4127 5.89411 12.0074 5.89411C8.6022 5.89411 5.84189 8.65522 5.84189 12.0614ZM16.9762 5.64958C16.9761 5.93464 17.0605 6.21333 17.2187 6.45041C17.377 6.68749 17.6019 6.87231 17.8652 6.9815C18.1284 7.09069 18.4181 7.11935 18.6976 7.06385C18.9771 7.00835 19.2339 6.87119 19.4355 6.6697C19.6371 6.46821 19.7744 6.21146 19.8301 5.9319C19.8859 5.65234 19.8574 5.36254 19.7485 5.09913C19.6395 4.83573 19.4549 4.61056 19.2181 4.45209C18.9812 4.29363 18.7026 4.20899 18.4177 4.20887H18.4171C18.0351 4.20905 17.6688 4.36088 17.3986 4.63101C17.1285 4.90114 16.9765 5.26748 16.9762 5.64958ZM7.15654 21.8378C5.98588 21.7845 5.3496 21.5895 4.92675 21.4247C4.36616 21.2064 3.96617 20.9464 3.54563 20.5263C3.12509 20.1062 2.86478 19.7065 2.6475 19.1457C2.48266 18.7229 2.28766 18.0863 2.23445 16.9153C2.17624 15.6493 2.16461 15.269 2.16461 12.0615C2.16461 8.85412 2.1772 8.47487 2.23445 7.20779C2.28776 6.0368 2.4842 5.40139 2.6475 4.97736C2.86574 4.41661 3.12567 4.01651 3.54563 3.59585C3.9656 3.17519 4.3652 2.9148 4.92675 2.69745C5.3494 2.53257 5.98588 2.33752 7.15654 2.28428C8.42219 2.22606 8.80239 2.21443 12.0074 2.21443C15.2125 2.21443 15.5931 2.22702 16.8598 2.28428C18.0304 2.33761 18.6657 2.53411 19.0896 2.69745C19.6502 2.9148 20.0502 3.17576 20.4707 3.59585C20.8912 4.01593 21.1506 4.41661 21.3688 4.97736C21.5337 5.40014 21.7287 6.0368 21.7819 7.20779C21.8401 8.47487 21.8517 8.85412 21.8517 12.0615C21.8517 15.269 21.8401 15.6482 21.7819 16.9153C21.7286 18.0863 21.5326 18.7228 21.3688 19.1457C21.1506 19.7065 20.8907 20.1066 20.4707 20.5263C20.0507 20.946 19.6502 21.2064 19.0896 21.4247C18.6669 21.5896 18.0304 21.7846 16.8598 21.8378C15.5941 21.8961 15.2139 21.9077 12.0074 21.9077C8.80095 21.9077 8.42181 21.8961 7.15654 21.8378ZM7.05712 0.123518C5.77888 0.181746 4.90543 0.384486 4.14263 0.681389C3.35265 0.987998 2.6839 1.39934 2.01563 2.06675C1.34736 2.73416 0.93719 3.40416 0.63067 4.19437C0.333852 4.95786 0.131171 5.83108 0.0729598 7.10969C0.0137883 8.39032 0.000244141 8.79974 0.000244141 12.0614C0.000244141 15.3232 0.0137883 15.7326 0.0729598 17.0132C0.131171 18.2919 0.333852 19.165 0.63067 19.9285C0.93719 20.7183 1.34745 21.389 2.01563 22.0561C2.68381 22.7233 3.35265 23.134 4.14263 23.4415C4.90687 23.7384 5.77888 23.9411 7.05712 23.9994C8.33805 24.0576 8.74667 24.0721 12.0074 24.0721C15.2682 24.0721 15.6775 24.0586 16.9578 23.9994C18.2361 23.9411 19.109 23.7384 19.8723 23.4415C20.6618 23.134 21.331 22.7236 21.9993 22.0561C22.6675 21.3887 23.0768 20.7183 23.3842 19.9285C23.681 19.165 23.8847 18.2918 23.9419 17.0132C24.0001 15.7316 24.0137 15.3232 24.0137 12.0614C24.0137 8.79974 24.0001 8.39032 23.9419 7.10969C23.8837 5.83099 23.681 4.95738 23.3842 4.19437C23.0768 3.40464 22.6665 2.73521 21.9993 2.06675C21.332 1.39828 20.6618 0.987998 19.8732 0.681389C19.109 0.384486 18.236 0.180785 16.9587 0.123518C15.6785 0.0652901 15.2692 0.0507812 12.0084 0.0507812C8.74763 0.0507812 8.33805 0.0643293 7.05712 0.123518Z" fill="#FDFDFD"/>
</svg>
