<svg width="21" height="20" viewBox="0 0 21 20" fill="none" xmlns="http://www.w3.org/2000/svg">
<path d="M5.47881 19.7274V6.76118H1.17287V19.7274H5.47926H5.47881ZM3.32674 4.99117C4.82799 4.99117 5.76262 3.99552 5.76262 2.75124C5.73452 1.4786 4.82799 0.510742 3.35529 0.510742C1.88157 0.510742 0.919067 1.4786 0.919067 2.75112C0.919067 3.99541 1.85336 4.99106 3.29853 4.99106H3.3264L3.32674 4.99117ZM7.8622 19.7274H12.1678V12.4872C12.1678 12.1002 12.1959 11.7122 12.3096 11.4358C12.6208 10.6612 13.3293 9.85939 14.519 9.85939C16.0767 9.85939 16.7002 11.0483 16.7002 12.7916V19.7274H21.0057V12.2929C21.0057 8.31045 18.8817 6.45719 16.0488 6.45719C13.7263 6.45719 12.7062 7.75649 12.1395 8.64144H12.1681V6.76163H7.86242C7.91862 7.97801 7.86209 19.7278 7.86209 19.7278L7.8622 19.7274Z" fill="#FDFDFD"/>
</svg>
