<svg width="49" height="54" viewBox="0 0 49 54" fill="none" xmlns="http://www.w3.org/2000/svg">
<path d="M48.3599 27.6329C43.2913 28.9019 37.0236 30.7478 33.2574 34.4665C28.6691 38.9977 26.9821 45.9001 25.4837 52.7803C25.3404 53.4431 24.4076 53.4455 24.2618 52.7803C23.0525 47.2648 21.4937 40.6423 18.2203 36.548C14.0569 31.3394 7.64332 29.2088 1.34791 27.6329C0.689206 27.4685 0.689206 26.5897 1.34791 26.4253C6.85388 25.0482 13.1644 23.2195 17.104 18.9903C21.2096 14.5818 22.8589 7.67208 24.2618 1.27538C24.4076 0.612635 25.3404 0.612635 25.4837 1.27538C26.7935 7.28425 29.0261 14.1105 32.7495 18.3938C36.7923 23.0453 42.5069 24.9574 48.3599 26.4228C49.0186 26.5873 49.0186 27.466 48.3599 27.6305V27.6329Z" fill="#F3993F"/>
</svg>
